<?xml version="1.0" encoding="UTF-8"?><svg id="Layer_2" xmlns="http://www.w3.org/2000/svg" viewBox="0 0 102.72 98.36"><defs><style>.cls-1{fill:#fff;}.cls-2{fill:#bf1f36;}.cls-3{fill:#084f95;}</style></defs><g id="Layer_1-2"><path class="cls-3" d="M68.71,0l3.96,3.69,3.61-3.51h25.75l-7.7,13.66V80.49c0,6.24-5.06,11.29-11.29,11.29h-21.12c-4.55,0-8.82,2.67-10.91,6.58-2.09-3.9-6.35-6.58-10.91-6.58H18.99c-6.23,0-11.29-5.06-11.29-11.29V13.84L0,.18H25.75l3.61,3.51,3.96-3.69h35.4Z"/><path class="cls-1" d="M93.69,13.67L100.93,.83h-24.38l-3.86,3.75-4.22-3.93H33.57l-4.22,3.93-3.86-3.75H1.1l7.24,12.85V80.49c0,2.85,1.11,5.52,3.12,7.53,2.01,2.01,4.68,3.12,7.53,3.12h21.12c4.36,0,8.52,2.31,10.91,5.97,2.39-3.66,6.55-5.97,10.91-5.97h21.12c5.87,0,10.65-4.78,10.65-10.65V13.67Z"/><path class="cls-3" d="M90.86,13.67v-.74l.36-.65,4.86-8.63h-18.39l-3.04,2.95-1.93,1.88-1.97-1.84-3.41-3.17H34.68l-3.41,3.17-1.97,1.84-1.93-1.88-3.04-2.95H5.94l4.86,8.63,.36,.65V80.49c0,2.09,.81,4.05,2.29,5.53,1.48,1.48,3.44,2.29,5.53,2.29h21.12c4.04,0,8.14,1.3,10.91,5.06,2.76-3.66,6.86-5.06,10.91-5.06h21.12c4.31,0,7.82-3.51,7.82-7.82V13.67Z"/><path class="cls-3" d="M99.79,86.62c1.22,0,2.09,1,2.09,2.23,0,1.53-1.17,2.25-2.02,2.25-1.35,0-2.17-1-2.17-2.24s.85-2.24,2.1-2.24Zm0-.68c-1.69,0-2.94,1.19-2.94,2.92s1.22,2.91,2.94,2.91,2.93-1.18,2.93-2.92-1.25-2.91-2.93-2.91Zm-1.16,1.35v3.14h.67v-1.32h.32l.73,1.32h.79l-.8-1.37c.47-.02,.75-.3,.75-.82,0-.69-.43-.95-1.32-.95h-1.14Zm.67,.53h.48c.3,0,.6,.04,.6,.36,0,.35-.21,.39-.5,.39h-.57v-.75Z"/><rect class="cls-1" x="13.34" y="28.53" width="75.34" height="1.81"/><polygon class="cls-1" points="38.45 33.07 35.84 33.07 88.69 70.91 88.69 69.04 38.45 33.07"/><polygon class="cls-2" points="88.69 65.33 88.69 33.07 43.63 33.07 88.69 65.33"/><path class="cls-1" d="M13.36,41.92l60.98,44.16h2.59L13.36,40.04v1.88Z"/><path class="cls-1" d="M63.69,86.09s-.07,0-.11,0h.11Z"/><path class="cls-1" d="M73.86,12.65h-4.97v13.62h2.18v-6.69h1.33l2.35,6.69h2.18l-2.39-6.78c1.09-.18,2.05-1.28,2.05-2.55v-1.6c0-1.45-1.36-2.64-2.72-2.69Zm-.41,4.86h-2.38v-2.68h2.34s.99-.02,.99,.88v.91c0,.92-.96,.88-.96,.88Z"/><path class="cls-1" d="M76.99,66.01l-2.25-1.65-.55-.4-1.21-.88-8.03,10.99,1.76,1.29,3.59-4.92,1.07,.79-1.7,6.3,1.76,1.29,1.71-6.4c.99,.5,2.41,.18,3.16-.85l1.3-1.78c.86-1.17,.46-2.94-.61-3.78Zm-3.56,4.16l-1.92-1.4,1.94-2.65,1.89,1.38s.81,.57,.28,1.3l-.89,1.22c-.54,.74-1.3,.15-1.3,.15Z"/><path class="cls-1" d="M62.73,26.26h.82s3-.41,3.03-3v-7.52c.03-2.93-2.86-3.1-2.86-3.1h-.99c-2.89,0-3.03,2.93-3.03,2.93v7.45c0,3,3.03,3.23,3.03,3.23Zm.58-2.18h-.27s-1.16-.03-1.16-1.19v-6.88s.04-1.16,1.16-1.19h.31s1.06,.17,1.06,1.23v6.84c-.03,1.09-1.09,1.19-1.09,1.19Z"/><polygon class="cls-1" points="30.56 14.83 30.56 12.65 27.29 12.65 26.07 12.65 25.12 12.65 25.12 26.26 26.07 26.26 27.29 26.26 30.56 26.26 30.56 24.09 27.29 24.09 27.29 20.48 30.56 20.48 30.56 18.3 27.29 18.3 27.29 14.83 30.56 14.83"/><polygon class="cls-1" points="69.08 62.97 70.38 61.22 67.76 59.27 66.77 58.54 66.01 57.97 57.88 68.9 58.65 69.47 59.63 70.2 62.25 72.15 63.55 70.4 60.93 68.45 63.08 65.56 65.7 67.5 67.01 65.76 64.38 63.81 66.46 61.02 69.08 62.97"/><polygon class="cls-1" points="20.01 12.65 20.01 21.2 16.33 12.65 14.15 12.65 14.15 26.26 16.33 26.26 16.33 17.71 20.01 26.26 22.19 26.26 22.19 12.65 20.01 12.65"/><polygon class="cls-1" points="56.23 12.65 54.39 17.65 52.55 12.65 50.37 12.65 53.3 20.61 53.3 26.26 55.48 26.26 55.48 20.61 58.41 12.65 56.23 12.65"/><polygon class="cls-1" points="88.02 26.26 83.91 16.96 86.59 12.65 84.42 12.65 81.56 17.23 81.56 12.65 79.38 12.65 79.38 26.26 81.56 26.26 81.56 20.75 82.63 19.02 85.85 26.26 88.02 26.26"/><polygon class="cls-1" points="42.61 12.65 41.24 20.98 39.82 12.65 37.64 12.65 36.23 20.98 34.85 12.65 32.67 12.65 34.92 26.26 35.33 26.26 37.1 26.26 37.51 26.26 38.73 19.06 39.96 26.26 40.37 26.26 42.14 26.26 42.55 26.26 44.79 12.65 42.61 12.65"/><polygon class="cls-1" points="53.19 48.82 48.21 55.78 50.2 46.69 48.42 45.42 40.5 56.49 42.27 57.76 47.25 50.81 45.26 59.9 47.04 61.17 54.96 50.09 53.19 48.82"/><path class="cls-1" d="M61.15,54.58l-1.02-.76-.08-.06c-2.35-1.69-4.17,.61-4.17,.61l-4.35,6.06c-1.75,2.43,.58,4.39,.58,4.39l.97,.71s.65,.35,1.5,.44l-.04,.55,.95,.68,1.48-1.97c.11-.11,.22-.23,.32-.37l1.43-1.99,.99-1.38-1.78-1.26-1.77-1.26-.99,1.39,1.77,1.26-1.2,1.67c-.66,.87-1.58,.33-1.58,.33l-.53-.4s-.92-.7-.24-1.64l4.01-5.59s.7-.92,1.63-.29l.55,.42s.76,.75,.14,1.61l-.88,1.23,1.76,1.28,1.07-1.49c1.73-2.36-.52-4.18-.52-4.18Z"/><path class="cls-1" d="M43.94,42.13l-1.71-1.31-11.04,8.87,1.76,1.29,2.35-1.79,2.94,2.18-.97,2.77,1.76,1.29,4.91-13.3Zm-2.92,2.28l-2.08,5.11-2.14-1.53,4.22-3.57Z"/><path class="cls-1" d="M84.47,70.54c1.5,1.26,2.02,2.57,1.2,4.2-.4,.75-1.07,1.62-1.07,1.62l-1.72-1.28s1.72-1.63,.35-2.83c-.55-.44-1.08-.67-1.89-.45-1.14,.65-1.15,1.83-.77,3.14,.76,2.03,1.83,4.85,.18,6.82-.93,.92-2.49,1.53-3.58,.98-1.36-.49-2.71-1.56-3.36-2.92-.75-2,1.51-4.27,1.51-4.27l1.47,1.04s-1.59,1.9-.96,2.73c.23,.64,1.9,1.84,2.99,1.3,2.55-1.93-2.57-6.2-.07-9.42,.65-.76,1.41-1.31,2.34-1.52,1.36-.33,2.34,.24,3.38,.87Z"/><path class="cls-1" d="M51.01,90.31c-3.84-4.62-10.79-4.26-12.55-4.22H20.18c-7.62,0-6.82-7.12-6.82-7.12,0-.01,0-16.25,0-33.32l55.84,40.44h-7.17c-1.79,0-6.87-.29-11.02,4.22Z"/><path class="cls-1" d="M35.69,36.22l-2.25-1.65-.55-.4-1.21-.88-8.03,10.99,1.76,1.28,3.59-4.91,1.07,.78-1.7,6.3,1.76,1.28,1.71-6.4c.99,.5,2.41,.18,3.16-.85l1.3-1.78c.86-1.17,.46-2.94-.61-3.78Zm-3.56,4.16l-1.92-1.4,1.94-2.65,1.89,1.38s.82,.57,.28,1.3l-.89,1.22c-.54,.74-1.3,.15-1.3,.15Z"/><path class="cls-3" d="M59.2,57.83c-.21,.28-.78,.2-1.28-.17h0c-.5-.38-.73-.9-.52-1.18l.6-.8c.21-.28,.78-.2,1.28,.17h0c.5,.37,.73,.9,.52,1.18l-.6,.8Z"/><path class="cls-3" d="M55.1,63.6c-.21,.28-.78,.2-1.28-.17h0c-.5-.37-.73-.9-.52-1.18l.6-.8c.21-.28,.78-.2,1.28,.17h0c.5,.37,.73,.9,.52,1.18l-.6,.8Z"/><path class="cls-1" d="M54.09,65.73c-.17,.23-.89-.03-1.61-.57h0c-.72-.54-1.17-1.16-1-1.39l.48-.65c.17-.22,.89,.03,1.61,.57h0c.72,.54,1.17,1.16,1,1.38l-.48,.64Z"/><path class="cls-1" d="M61.31,56.29c-.17,.23-.98-.1-1.81-.72h0c-.83-.63-1.37-1.31-1.2-1.54l.48-.65c.17-.22,.98,.1,1.81,.72h0c.83,.62,1.37,1.31,1.2,1.53l-.48,.65Z"/></g></svg>